<?xml version="1.0" standalone="no"?>
<!DOCTYPE svg PUBLIC "-//W3C//DTD SVG 20010904//EN"
 "http://www.w3.org/TR/2001/REC-SVG-20010904/DTD/svg10.dtd">
<svg version="1.0" xmlns="http://www.w3.org/2000/svg"
 width="700.000000pt" height="700.000000pt" viewBox="0 0 700.000000 700.000000"
 preserveAspectRatio="xMidYMid meet">
<metadata>
Created by potrace 1.11, written by Peter Selinger 2001-2013
</metadata>
<g transform="translate(0.000000,700.000000) scale(0.100000,-0.100000)"
fill="#000000" stroke="none">
<path d="M3298 6995 c-2 -1 -48 -6 -102 -9 -55 -4 -102 -8 -105 -10 -3 -2 -35
-7 -70 -10 -35 -4 -85 -11 -110 -16 -25 -5 -57 -12 -71 -14 -83 -14 -199 -42
-304 -73 -125 -36 -364 -119 -381 -133 -5 -4 -21 -11 -35 -15 -42 -13 -228
-105 -340 -169 -188 -106 -468 -302 -453 -317 7 -7 538 -291 873 -467 58 -30
128 -67 155 -82 28 -15 88 -48 135 -72 185 -99 249 -132 340 -181 52 -27 118
-62 145 -77 28 -15 100 -53 160 -85 61 -32 133 -70 160 -85 28 -15 89 -48 138
-74 222 -118 417 -221 502 -266 39 -21 216 -115 395 -210 179 -95 358 -190
398 -211 39 -22 107 -58 150 -80 42 -23 109 -58 147 -79 39 -20 108 -58 155
-82 47 -25 119 -63 160 -85 41 -22 120 -64 175 -93 55 -30 145 -77 200 -107
55 -29 190 -101 301 -159 l201 -106 1 -1156 c0 -637 1 -1161 1 -1165 2 -22
225 294 308 438 57 98 153 292 203 410 71 166 165 468 195 624 56 291 69 431
69 711 0 186 -6 326 -19 420 -3 19 -7 53 -10 75 -50 407 -218 897 -435 1265
-53 90 -191 301 -214 327 -18 21 -31 37 -55 71 -87 124 -326 373 -501 523
-121 104 -424 319 -449 319 -5 0 -11 4 -13 8 -8 20 -306 171 -473 239 -196 81
-434 153 -630 192 -126 25 -213 38 -375 57 -56 6 -516 15 -522 9z"/>
<path d="M1260 6188 c-96 -77 -312 -289 -391 -383 -19 -22 -42 -49 -53 -60
-37 -40 -164 -212 -233 -315 -180 -270 -311 -541 -411 -850 -38 -118 -79 -264
-88 -320 -3 -14 -11 -56 -19 -95 -15 -78 -23 -127 -39 -247 -27 -197 -28 -722
-1 -828 2 -8 6 -40 10 -71 3 -31 8 -67 10 -80 3 -13 7 -39 10 -58 2 -18 7 -41
9 -50 3 -9 8 -31 11 -49 13 -75 77 -306 119 -430 223 -647 652 -1236 1196
-1641 435 -324 918 -542 1415 -640 97 -19 127 -24 210 -36 22 -3 54 -8 70 -10
120 -19 544 -26 705 -11 146 13 164 15 195 20 17 3 48 8 70 12 22 3 74 12 115
20 41 9 89 18 105 21 53 9 327 91 425 127 169 61 484 208 518 240 11 11 17
279 13 556 -1 32 -6 37 -59 65 -31 16 -91 48 -132 71 -41 22 -131 70 -200 106
-69 36 -161 85 -205 109 -44 23 -129 69 -190 101 -60 32 -129 69 -152 80 l-43
22 -1 60 c0 34 0 269 -1 523 0 328 -4 465 -12 471 -6 5 -73 41 -149 81 -76 39
-157 82 -180 95 -51 29 -210 113 -462 246 -55 29 -122 65 -150 80 -27 15 -99
53 -160 85 -60 32 -163 86 -227 121 -64 35 -119 64 -121 64 -3 0 -40 19 -83
43 -73 40 -130 71 -379 202 -49 26 -117 62 -150 80 -33 18 -105 56 -160 85
-129 68 -219 116 -325 173 -191 102 -298 159 -347 184 l-53 26 -2 1013 -3
1012 -25 -20z"/>
</g>
</svg>
