<svg width="354.45160830020905" height="52.096770882606506" xmlns="http://www.w3.org/2000/svg" style="background: rgba(0, 0, 0, 0) none repeat scroll 0% 0%;" preserveAspectRatio="xMidYMid"><rect id="backgroundrect" width="100%" height="100%" x="0" y="0" fill="none" stroke="none" style="" class=""/><defs><filter id="editing-hole" x="-100%" y="-100%" width="300%" height="300%"><feFlood flood-color="#000" result="black"/><feMorphology operator="dilate" radius="2" in="SourceGraphic" result="erode"/><feGaussianBlur in="erode" stdDeviation="4" result="blur"/><feOffset in="blur" dx="2" dy="2" result="offset"/><feComposite operator="atop" in="offset" in2="black" result="merge"/><feComposite operator="in" in="merge" in2="SourceGraphic" result="inner-shadow"/></filter></defs><style>text {
  font-size: 64px;
  font-family: Arial Black;
  font-weight: bold;
  dominant-baseline: central;
  text-anchor: middle;
}</style><g class="currentLayer" style=""><title>Layer 1</title><g filter="url(#editing-hole)" id="svg_1" class=""><g id="svg_2"><path d="M51.22363996505737,26.495391249656677 L51.22363996505737,26.495391249656677 L51.22363996505737,26.495391249656677 Q51.22363996505737,37.495389342308044 45.30364179611206,43.675389647483826 L45.30364179611206,43.675389647483826 L45.30364179611206,43.675389647483826 Q39.38363599777222,49.85538995265961 28.563634395599365,49.85538995265961 L28.563634395599365,49.85538995265961 L28.563634395599365,49.85538995265961 Q21.27363348007202,49.85538995265961 15.413632869720459,46.77538812160492 L15.413632869720459,46.77538812160492 L15.413632869720459,46.77538812160492 Q9.553639888763428,43.7053884267807 6.323636531829834,38.39539086818695 L6.323636531829834,38.39539086818695 L6.323636531829834,38.39539086818695 Q3.0936331748962402,33.0853875875473 3.0936331748962402,26.525390028953552 L3.0936331748962402,26.525390028953552 L3.0936331748962402,26.525390028953552 Q3.0936331748962402,19.965392470359802 6.293637752532959,14.655393958091736 L6.293637752532959,14.655393958091736 L6.293637752532959,14.655393958091736 Q9.493634700775146,9.335390448570251 15.123631954193115,6.295389533042908 L15.123631954193115,6.295389533042908 L15.123631954193115,6.295389533042908 Q20.753636837005615,3.255388855934143 27.673635005950928,3.255388855934143 L27.673635005950928,3.255388855934143 L27.673635005950928,3.255388855934143 Q32.02363348007202,3.255388855934143 36.53363752365112,4.445391297340393 L36.53363752365112,4.445391297340393 L36.53363752365112,4.445391297340393 Q41.04363965988159,5.62538754940033 44.05364179611206,7.6153892278671265 L44.05364179611206,7.6153892278671265 L45.333640575408936,16.6353896856308 L44.75363874435425,16.6353896856308 L44.75363874435425,16.6353896856308 Q43.41364240646362,11.255388617515564 38.55364179611206,8.21538770198822 L38.55364179611206,8.21538770198822 L38.55364179611206,8.21538770198822 Q33.6836371421814,5.175390839576721 27.733632564544678,5.175390839576721 L27.733632564544678,5.175390839576721 L27.733632564544678,5.175390839576721 Q19.22363805770874,5.175390839576721 13.553639888763428,11.225389838218689 L13.553639888763428,11.225389838218689 L13.553639888763428,11.225389838218689 Q7.893636226654053,17.275389075279236 7.893636226654053,26.42539155483246 L7.893636226654053,26.42539155483246 L7.893636226654053,26.42539155483246 Q7.893636226654053,35.57539117336273 13.753636837005615,41.75539147853851 L13.753636837005615,41.75539147853851 L13.753636837005615,41.75539147853851 Q19.60363531112671,47.935391783714294 29.073636531829834,47.935391783714294 L29.073636531829834,47.935391783714294 L29.073636531829834,47.935391783714294 Q38.55364179611206,47.935391783714294 44.53363752365112,41.78539025783539 L44.53363752365112,41.78539025783539 L44.53363752365112,41.78539025783539 Q50.513633251190186,35.64539086818695 50.513633251190186,24.955390334129333 L50.513633251190186,24.955390334129333 L51.15363264083862,24.955390334129333 L51.15363264083862,24.955390334129333 Q51.22363996505737,25.72538697719574 51.22363996505737,26.495391249656677 zM56.59363508224487,48.31538903713226 L57.4336314201355,48.31538903713226 L57.4336314201355,48.31538903713226 Q59.09363508224487,48.31538903713226 60.273643016815186,47.13538873195648 L60.273643016815186,47.13538873195648 L60.273643016815186,47.13538873195648 Q61.46363019943237,45.94538629055023 61.523643016815186,44.28539025783539 L61.523643016815186,44.28539025783539 L61.523643016815186,8.445391058921814 L61.523643016815186,8.445391058921814 Q61.523643016815186,6.90539014339447 60.313636302948,5.855390906333923 L60.313636302948,5.855390906333923 L60.313636302948,5.855390906333923 Q59.09363508224487,4.795389771461487 57.4336314201355,4.795389771461487 L57.4336314201355,4.795389771461487 L56.66364240646362,4.795389771461487 L56.59363508224487,4.155390381813049 L75.35364484786987,4.155390381813049 L75.35364484786987,4.155390381813049 Q77.33364057540894,4.155390381813049 79.67363691329956,3.775389313697815 L79.67363691329956,3.775389313697815 L79.67363691329956,3.775389313697815 Q82.00363874435425,3.3853899240493774 82.96363019943237,3.005388855934143 L82.96363019943237,3.005388855934143 L82.96363019943237,11.06538999080658 L82.323646068573,11.06538999080658 L82.323646068573,9.915388464927673 L82.323646068573,9.915388464927673 Q82.323646068573,8.37538754940033 81.27362775802612,7.295389533042908 L81.27362775802612,7.295389533042908 L81.27362775802612,7.295389533042908 Q80.21363019943237,6.205389380455017 78.74362897872925,6.135389685630798 L78.74362897872925,6.135389685630798 L65.6836314201355,6.135389685630798 L65.6836314201355,25.91538941860199 L76.50363874435425,25.91538941860199 L76.50363874435425,25.91538941860199 Q77.78363752365112,25.85539186000824 78.67363691329956,24.955390334129333 L78.67363691329956,24.955390334129333 L78.67363691329956,24.955390334129333 Q79.573646068573,24.055388808250427 79.573646068573,22.715392470359802 L79.573646068573,22.715392470359802 L79.573646068573,21.815390944480896 L80.21363019943237,21.815390944480896 L80.21363019943237,31.935393691062927 L79.573646068573,31.935393691062927 L79.573646068573,30.97538697719574 L79.573646068573,30.97538697719574 Q79.573646068573,29.695388197898865 78.71363019943237,28.79539430141449 L78.71363019943237,28.79539430141449 L78.71363019943237,28.79539430141449 Q77.84363508224487,27.895392775535583 76.563636302948,27.835387587547302 L76.563636302948,27.835387587547302 L65.6836314201355,27.835387587547302 L65.6836314201355,46.97538506984711 L74.83364057540894,46.97538506984711 L74.83364057540894,46.97538506984711 Q79.573646068573,46.97538506984711 82.073646068573,44.85538995265961 L82.073646068573,44.85538995265961 L82.073646068573,44.85538995265961 Q84.563636302948,42.745389342308044 86.23363447189331,38.58538568019867 L86.23363447189331,38.58538568019867 L86.87363386154175,38.58538568019867 L83.15363264083862,48.9553884267807 L56.59363508224487,48.9553884267807 L56.59363508224487,48.31538903713226 zM140.63364362716675,4.795389771461487 L139.47363996505737,4.795389771461487 L139.47363996505737,4.795389771461487 Q137.87363386154175,4.795389771461487 136.72363996505737,5.915388464927673 L136.72363996505737,5.915388464927673 L136.72363996505737,5.915388464927673 Q135.573646068573,7.035391211509705 135.51364850997925,8.635389685630798 L135.51364850997925,8.635389685630798 L135.51364850997925,41.65538537502289 L135.51364850997925,41.65538537502289 Q135.51364850997925,45.37538659572601 135.9536509513855,48.69538629055023 L135.9536509513855,48.69538629055023 L136.08362531661987,49.85538995265961 L135.51364850997925,49.85538995265961 L100.63364362716675,12.605390906333923 L100.63364362716675,44.47538506984711 L100.63364362716675,44.47538506984711 Q100.63364362716675,46.07539117336273 101.78363752365112,47.19538629055023 L101.78363752365112,47.19538629055023 L101.78363752365112,47.19538629055023 Q102.9336314201355,48.31538903713226 104.53363752365112,48.31538903713226 L104.53363752365112,48.31538903713226 L105.75363874435425,48.31538903713226 L105.75363874435425,48.9553884267807 L92.563636302948,48.9553884267807 L92.563636302948,48.31538903713226 L93.78363752365112,48.31538903713226 L93.78363752365112,48.31538903713226 Q95.38364362716675,48.31538903713226 96.53363752365112,47.19538629055023 L96.53363752365112,47.19538629055023 L96.53363752365112,47.19538629055023 Q97.6836314201355,46.07539117336273 97.6836314201355,44.41538751125336 L97.6836314201355,44.41538751125336 L97.6836314201355,11.195391058921814 L97.6836314201355,11.195391058921814 Q97.6836314201355,7.295389533042908 97.23363447189331,4.215387940406799 L97.23363447189331,4.215387940406799 L97.11363935470581,3.195391297340393 L97.75363874435425,3.195391297340393 L132.63364362716675,40.44538629055023 L132.63364362716675,8.695391058921814 L132.63364362716675,8.695391058921814 Q132.563636302948,7.035391211509705 131.41364240646362,5.915388464927673 L131.41364240646362,5.915388464927673 L131.41364240646362,5.915388464927673 Q130.26365613937378,4.795389771461487 128.66365003585815,4.795389771461487 L128.66365003585815,4.795389771461487 L127.44364881515503,4.795389771461487 L127.44364881515503,4.155390381813049 L140.63364362716675,4.155390381813049 L140.63364362716675,4.795389771461487 zM181.2036509513855,10.935388922691345 L181.2036509513855,9.855390906333923 L181.2036509513855,9.855390906333923 Q181.2036509513855,8.31538999080658 180.11362409591675,7.195391058921814 L180.11362409591675,7.195391058921814 L180.11362409591675,7.195391058921814 Q179.03363752365112,6.075388312339783 177.553626537323,6.015390753746033 L177.553626537323,6.015390753746033 L165.39362287521362,6.015390753746033 L165.39362287521362,44.34538781642914 L165.39362287521362,44.34538781642914 Q165.46363019943237,46.01538598537445 166.64362287521362,47.16538751125336 L166.64362287521362,47.16538751125336 L166.64362287521362,47.16538751125336 Q167.83362531661987,48.31538903713226 169.49362897872925,48.31538903713226 L169.49362897872925,48.31538903713226 L170.323646068573,48.31538903713226 L170.323646068573,48.9553884267807 L156.313636302948,48.9553884267807 L156.313636302948,48.31538903713226 L157.14362287521362,48.31538903713226 L157.14362287521362,48.31538903713226 Q158.803626537323,48.31538903713226 159.99362897872925,47.16538751125336 L159.99362897872925,47.16538751125336 L159.99362897872925,47.16538751125336 Q161.17365217208862,46.01538598537445 161.23364973068237,44.41538751125336 L161.23364973068237,44.41538751125336 L161.23364973068237,6.015390753746033 L149.073646068573,6.015390753746033 L149.073646068573,6.015390753746033 Q147.54364728927612,6.075388312339783 146.48364973068237,7.195391058921814 L146.48364973068237,7.195391058921814 L146.48364973068237,7.195391058921814 Q145.4336314201355,8.31538999080658 145.4336314201355,9.855390906333923 L145.4336314201355,9.855390906333923 L145.4336314201355,10.935388922691345 L144.79364728927612,11.005388617515564 L144.79364728927612,2.9353891611099243 L144.79364728927612,2.9353891611099243 Q145.75363874435425,3.325388550758362 148.11362409591675,3.705389618873596 L148.11362409591675,3.705389618873596 L148.11362409591675,3.705389618873596 Q150.48364973068237,4.095389008522034 152.47363996505737,4.095389008522034 L152.47363996505737,4.095389008522034 L174.10364484786987,4.095389008522034 L174.10364484786987,4.095389008522034 Q177.23364973068237,4.095389008522034 179.313636302948,3.6153894662857056 L179.313636302948,3.6153894662857056 L179.313636302948,3.6153894662857056 Q181.39362287521362,3.1353899240493774 181.84363508224487,2.9353891611099243 L181.84363508224487,2.9353891611099243 L181.84363508224487,11.005388617515564 L181.2036509513855,10.935388922691345 zM230.10364484786987,4.155390381813049 L230.10364484786987,4.795389771461487 L229.073646068573,4.795389771461487 L229.073646068573,4.795389771461487 Q227.73364973068237,4.795389771461487 226.74362897872925,5.65539014339447 L226.74362897872925,5.65539014339447 L226.74362897872925,5.65539014339447 Q225.75363874435425,6.525389075279236 225.6836314201355,7.805387854576111 L225.6836314201355,7.805387854576111 L225.6836314201355,33.14539277553558 L225.6836314201355,33.14539277553558 Q225.6836314201355,40.63538873195648 220.9536509513855,45.245389342308044 L220.9536509513855,45.245389342308044 L220.9536509513855,45.245389342308044 Q216.21363019943237,49.85538995265961 208.34363508224487,49.85538995265961 L208.34363508224487,49.85538995265961 L208.34363508224487,49.85538995265961 Q200.47363996505737,49.85538995265961 195.573646068573,45.27538812160492 L195.573646068573,45.27538812160492 L195.573646068573,45.27538812160492 Q190.67365217208862,40.69538629055023 190.67365217208862,33.2153924703598 L190.67365217208862,33.2153924703598 L190.67365217208862,7.995390295982361 L190.67365217208862,7.995390295982361 Q190.67365217208862,6.075388312339783 189.01364850997925,5.175390839576721 L189.01364850997925,5.175390839576721 L189.01364850997925,5.175390839576721 Q188.24362897872925,4.795389771461487 187.28363752365112,4.795389771461487 L187.28363752365112,4.795389771461487 L186.26364850997925,4.795389771461487 L186.26364850997925,4.155390381813049 L199.25363874435425,4.155390381813049 L199.25363874435425,4.795389771461487 L198.23364973068237,4.795389771461487 L198.23364973068237,4.795389771461487 Q196.823646068573,4.795389771461487 195.86362409591675,5.65539014339447 L195.86362409591675,5.65539014339447 L195.86362409591675,5.65539014339447 Q194.90363264083862,6.525389075279236 194.83362531661987,7.8653892278671265 L194.83362531661987,7.8653892278671265 L194.83362531661987,32.315390944480896 L194.83362531661987,32.315390944480896 Q194.83362531661987,39.29539239406586 198.58362531661987,43.57539117336273 L198.58362531661987,43.57539117336273 L198.58362531661987,43.57539117336273 Q202.323646068573,47.865392088890076 208.59363508224487,47.865392088890076 L208.59363508224487,47.865392088890076 L208.59363508224487,47.865392088890076 Q214.87363386154175,47.865392088890076 218.77362775802612,43.805386900901794 L218.77362775802612,43.805386900901794 L218.77362775802612,43.805386900901794 Q222.67365217208862,39.735387206077576 222.67365217208862,33.14539277553558 L222.67365217208862,33.14539277553558 L222.67365217208862,7.8653892278671265 L222.67365217208862,7.8653892278671265 Q222.61362409591675,6.525389075279236 221.65363264083862,5.65539014339447 L221.65363264083862,5.65539014339447 L221.65363264083862,5.65539014339447 Q220.6936411857605,4.795389771461487 219.28363752365112,4.795389771461487 L219.28363752365112,4.795389771461487 L218.26364850997925,4.795389771461487 L218.26364850997925,4.155390381813049 L230.10364484786987,4.155390381813049 zM250.323646068573,6.135389685630798 L250.323646068573,6.135389685630798 L246.23364973068237,6.135389685630798 L246.23364973068237,44.28539025783539 L246.23364973068237,44.28539025783539 Q246.23364973068237,45.94538629055023 247.41364240646362,47.13538873195648 L247.41364240646362,47.13538873195648 L247.41364240646362,47.13538873195648 Q248.59363508224487,48.31538903713226 250.323646068573,48.31538903713226 L250.323646068573,48.31538903713226 L251.09363508224487,48.31538903713226 L251.15363264083862,48.9553884267807 L237.14362287521362,48.9553884267807 L237.14362287521362,48.31538903713226 L237.97363996505737,48.31538903713226 L237.97363996505737,48.31538903713226 Q239.63364362716675,48.31538903713226 240.823646068573,47.16538751125336 L240.823646068573,47.16538751125336 L240.823646068573,47.16538751125336 Q242.00363874435425,46.01538598537445 242.073646068573,44.34538781642914 L242.073646068573,44.34538781642914 L242.073646068573,8.825388312339783 L242.073646068573,8.825388312339783 Q242.00363874435425,7.165388464927673 240.823646068573,5.975389838218689 L240.823646068573,5.975389838218689 L240.823646068573,5.975389838218689 Q239.63364362716675,4.795389771461487 237.97363996505737,4.795389771461487 L237.97363996505737,4.795389771461487 L237.14362287521362,4.795389771461487 L237.14362287521362,4.155390381813049 L254.42365217208862,4.155390381813049 L254.42365217208862,4.155390381813049 Q260.24362897872925,4.155390381813049 263.5736155509949,7.385389685630798 L263.5736155509949,7.385389685630798 L263.5736155509949,7.385389685630798 Q266.9036326408386,10.615389227867126 266.9036326408386,15.775389075279236 L266.9036326408386,15.775389075279236 L266.9036326408386,15.775389075279236 Q266.9036326408386,20.92539155483246 263.73361921310425,24.66538941860199 L263.73361921310425,24.66538941860199 L263.73361921310425,24.66538941860199 Q260.563636302948,28.41538941860199 256.0236277580261,28.41538941860199 L256.0236277580261,28.41538941860199 L256.0236277580261,28.41538941860199 Q256.98361921310425,28.85539186000824 258.293616771698,30.17539155483246 L258.293616771698,30.17539155483246 L258.293616771698,30.17539155483246 Q259.6036448478699,31.48538911342621 260.63364362716675,32.89539277553558 L260.63364362716675,32.89539277553558 L260.63364362716675,32.89539277553558 Q266.13364362716675,40.76538598537445 267.793616771698,42.58538568019867 L267.793616771698,42.58538568019867 L267.793616771698,42.58538568019867 Q269.4636301994324,44.41538751125336 270.1636424064636,45.08538568019867 L270.1636424064636,45.08538568019867 L270.1636424064636,45.08538568019867 Q270.87363386154175,45.75539147853851 271.7036204338074,46.39539086818695 L271.7036204338074,46.39539086818695 L271.7036204338074,46.39539086818695 Q272.5336375236511,47.03539025783539 273.36362409591675,47.41538751125336 L273.36362409591675,47.41538751125336 L273.36362409591675,47.41538751125336 Q275.2236399650574,48.31538903713226 277.3336253166199,48.31538903713226 L277.3336253166199,48.31538903713226 L277.3336253166199,48.9553884267807 L273.813636302948,48.9553884267807 L273.813636302948,48.9553884267807 Q271.063636302948,48.9553884267807 268.6936411857605,47.96539056301117 L268.6936411857605,47.96539056301117 L268.6936411857605,47.96539056301117 Q266.3236155509949,46.97538506984711 265.1436228752136,45.91538751125336 L265.1436228752136,45.91538751125336 L265.1436228752136,45.91538751125336 Q263.9536204338074,44.85538995265961 263.0936350822449,43.865384459495544 L263.0936350822449,43.865384459495544 L263.0936350822449,43.865384459495544 Q262.23361921310425,42.87538659572601 258.3236155509949,37.245389342308044 L258.3236155509949,37.245389342308044 L258.3236155509949,37.245389342308044 Q254.42365217208862,31.615386366844177 253.78363752365112,30.815390944480896 L253.78363752365112,30.815390944480896 L253.78363752365112,30.815390944480896 Q253.14362287521362,30.015387892723083 252.4336314201355,29.245391249656677 L252.4336314201355,29.245391249656677 L252.4336314201355,29.245391249656677 Q250.39362287521362,27.065390944480896 248.34363508224487,27.065390944480896 L248.34363508224487,27.065390944480896 L248.34363508224487,26.42539155483246 L248.34363508224487,26.42539155483246 Q248.85364484786987,26.495391249656677 249.6836314201355,26.495391249656677 L249.6836314201355,26.495391249656677 L249.6836314201355,26.495391249656677 Q250.51364850997925,26.495391249656677 251.73364973068237,26.42539155483246 L251.73364973068237,26.42539155483246 L251.73364973068237,26.42539155483246 Q259.6736216545105,26.23538911342621 261.7136301994324,19.775390028953552 L261.7136301994324,19.775390028953552 L261.7136301994324,19.775390028953552 Q262.1036448478699,18.495391249656677 262.1036448478699,17.375388503074646 L262.1036448478699,17.375388503074646 L262.1036448478699,17.375388503074646 Q262.1036448478699,16.2553848028183 262.1036448478699,15.93539273738861 L262.1036448478699,15.93539273738861 L262.1036448478699,15.93539273738861 Q261.9736399650574,11.645388007164001 259.86362409591675,9.015390753746033 L259.86362409591675,9.015390753746033 L259.86362409591675,9.015390753746033 Q257.75363874435425,6.3953880071640015 254.16364240646362,6.205389380455017 L254.16364240646362,6.205389380455017 L254.16364240646362,6.205389380455017 Q252.63364362716675,6.135389685630798 250.323646068573,6.135389685630798 zM278.553626537323,48.31538903713226 L279.38364362716675,48.31538903713226 L279.38364362716675,48.31538903713226 Q281.043616771698,48.31538903713226 282.23361921310425,47.13538873195648 L282.23361921310425,47.13538873195648 L282.23361921310425,47.13538873195648 Q283.4136424064636,45.94538629055023 283.4736399650574,44.28539025783539 L283.4736399650574,44.28539025783539 L283.4736399650574,8.765390753746033 L283.4736399650574,8.765390753746033 Q283.4136424064636,7.095388770103455 282.23361921310425,5.945391058921814 L282.23361921310425,5.945391058921814 L282.23361921310425,5.945391058921814 Q281.043616771698,4.795389771461487 279.38364362716675,4.795389771461487 L279.38364362716675,4.795389771461487 L278.553626537323,4.795389771461487 L278.553626537323,4.155390381813049 L292.563636302948,4.155390381813049 L292.563636302948,4.795389771461487 L291.73361921310425,4.795389771461487 L291.73361921310425,4.795389771461487 Q290.0736155509949,4.795389771461487 288.88364362716675,5.945391058921814 L288.88364362716675,5.945391058921814 L288.88364362716675,5.945391058921814 Q287.7036204338074,7.095388770103455 287.63364362716675,8.765390753746033 L287.63364362716675,8.765390753746033 L287.63364362716675,44.28539025783539 L287.63364362716675,44.28539025783539 Q287.63364362716675,45.94538629055023 288.8536448478699,47.13538873195648 L288.8536448478699,47.13538873195648 L288.8536448478699,47.13538873195648 Q290.0736155509949,48.31538903713226 291.73361921310425,48.31538903713226 L291.73361921310425,48.31538903713226 L292.563636302948,48.31538903713226 L292.563636302948,48.9553884267807 L278.553626537323,48.9553884267807 L278.553626537323,48.31538903713226 zM313.4336314201355,18.935393691062927 L312.793616771698,19.065390944480896 L312.793616771698,19.065390944480896 Q312.5336375236511,18.23538911342621 312.5336375236511,17.625388503074646 L312.5336375236511,17.625388503074646 L312.5336375236511,17.625388503074646 Q312.5336375236511,17.015386939048767 312.5936350822449,16.2553848028183 L312.5936350822449,16.2553848028183 L312.5936350822449,16.2553848028183 Q312.6636424064636,15.485388159751892 312.88364362716675,14.135389685630798 L312.88364362716675,14.135389685630798 L312.88364362716675,14.135389685630798 Q313.11362409591675,12.795389533042908 313.75363874435425,11.485388159751892 L313.75363874435425,11.485388159751892 L313.75363874435425,11.485388159751892 Q314.3936228752136,10.175390601158142 315.2236399650574,8.955389380455017 L315.2236399650574,8.955389380455017 L315.2236399650574,8.955389380455017 Q316.053626537323,7.735388159751892 317.36362409591675,6.71538770198822 L317.36362409591675,6.71538770198822 L317.36362409591675,6.71538770198822 Q318.6736216545105,5.695391058921814 320.2736277580261,4.925390839576721 L320.2736277580261,4.925390839576721 L320.2736277580261,4.925390839576721 Q323.6736216545105,3.255388855934143 328.5336375236511,3.255388855934143 L328.5336375236511,3.255388855934143 L328.5336375236511,3.255388855934143 Q338.3236155509949,3.255388855934143 344.50363874435425,9.755388617515564 L344.50363874435425,9.755388617515564 L344.50363874435425,9.755388617515564 Q350.6736216545105,16.2553848028183 350.6736216545105,26.365386366844177 L350.6736216545105,26.365386366844177 L350.6736216545105,26.365386366844177 Q350.6736216545105,36.47538506984711 343.38364362716675,43.16538751125336 L343.38364362716675,43.16538751125336 L343.38364362716675,43.16538751125336 Q336.0836253166199,49.85538995265961 324.88364362716675,49.85538995265961 L324.88364362716675,49.85538995265961 L324.88364362716675,49.85538995265961 Q313.6836314201355,49.85538995265961 306.293616771698,43.19538629055023 L306.293616771698,43.19538629055023 L306.293616771698,43.19538629055023 Q298.9036326408386,36.53539025783539 298.9036326408386,25.91538941860199 L298.9036326408386,25.91538941860199 L298.9036326408386,25.91538941860199 Q298.9036326408386,19.065390944480896 302.1036448478699,13.755388617515564 L302.1036448478699,13.755388617515564 L302.1036448478699,13.755388617515564 Q305.303626537323,8.445391058921814 311.25363874435425,5.435388922691345 L311.25363874435425,5.435388922691345 L311.63364362716675,6.015390753746033 L311.63364362716675,6.015390753746033 Q307.4736399650574,8.765390753746033 305.6536326408386,13.945391058921814 L305.6536326408386,13.945391058921814 L305.6536326408386,13.945391058921814 Q303.8336253166199,19.135390639305115 303.8336253166199,24.955390334129333 L303.8336253166199,24.955390334129333 L303.8336253166199,24.955390334129333 Q303.8336253166199,35.77538812160492 309.7136301994324,41.85538995265961 L309.7136301994324,41.85538995265961 L309.7136301994324,41.85538995265961 Q315.6036448478699,47.935391783714294 324.8236155509949,47.935391783714294 L324.8236155509949,47.935391783714294 L324.8236155509949,47.935391783714294 Q334.0336375236511,47.935391783714294 339.8936228752136,41.81538903713226 L339.8936228752136,41.81538903713226 L339.8936228752136,41.81538903713226 Q345.75363874435425,35.7053884267807 345.75363874435425,25.72538697719574 L345.75363874435425,25.72538697719574 L345.75363874435425,25.72538697719574 Q345.75363874435425,17.085386633872986 341.11362409591675,11.135389685630798 L341.11362409591675,11.135389685630798 L341.11362409591675,11.135389685630798 Q336.4736399650574,5.175390839576721 328.0236277580261,5.175390839576721 L328.0236277580261,5.175390839576721 L328.0236277580261,5.175390839576721 Q324.24362897872925,5.175390839576721 321.1736216545105,6.525389075279236 L321.1736216545105,6.525389075279236 L321.1736216545105,6.525389075279236 Q315.6036448478699,8.895388007164001 313.813636302948,14.335390448570251 L313.813636302948,14.335390448570251 L313.813636302948,14.335390448570251 Q313.303626537323,15.93539273738861 313.303626537323,17.085386633872986 L313.303626537323,17.085386633872986 L313.303626537323,17.085386633872986 Q313.303626537323,18.23538911342621 313.4336314201355,18.935393691062927 L313.4336314201355,18.935393691062927 z" fill="#ccc" id="svg_3"/></g></g></g></svg>